<mxfile host="65bd71144e">
    <diagram id="-7X4kBdZIgbL-8Vb24gM" name="Page-2">
        <mxGraphModel dx="1597" dy="1905" grid="1" gridSize="10" guides="1" tooltips="1" connect="1" arrows="1" fold="1" page="1" pageScale="1" pageWidth="827" pageHeight="1169" math="0" shadow="0">
            <root>
                <mxCell id="0"/>
                <mxCell id="1" parent="0"/>
                <mxCell id="moevYXYjzL2wdo6MrvVT-7" style="edgeStyle=none;html=1;exitX=0;exitY=0.5;exitDx=0;exitDy=0;fontSize=14;startArrow=classic;startFill=1;endArrow=none;endFill=0;" parent="1" source="9EUJFgsQS7i97Vk9fihg-1" edge="1">
                    <mxGeometry relative="1" as="geometry">
                        <mxPoint y="160" as="targetPoint"/>
                    </mxGeometry>
                </mxCell>
                <mxCell id="moevYXYjzL2wdo6MrvVT-9" value="Исходный код&lt;br&gt;программы" style="edgeLabel;html=1;align=center;verticalAlign=middle;resizable=0;points=[];fontSize=14;" parent="moevYXYjzL2wdo6MrvVT-7" vertex="1" connectable="0">
                    <mxGeometry x="0.25" y="-3" relative="1" as="geometry">
                        <mxPoint x="15" y="23" as="offset"/>
                    </mxGeometry>
                </mxCell>
                <mxCell id="moevYXYjzL2wdo6MrvVT-8" style="edgeStyle=orthogonalEdgeStyle;html=1;exitX=1;exitY=0.5;exitDx=0;exitDy=0;entryX=-0.011;entryY=0.106;entryDx=0;entryDy=0;fontSize=14;entryPerimeter=0;rounded=0;" parent="1" source="9EUJFgsQS7i97Vk9fihg-1" target="moevYXYjzL2wdo6MrvVT-1" edge="1">
                    <mxGeometry relative="1" as="geometry"/>
                </mxCell>
                <mxCell id="PzxlP7XhQFu-x5lRBQ20-3" value="Lexer, Parser,&lt;br&gt;Listener, tree" style="edgeLabel;html=1;align=center;verticalAlign=middle;resizable=0;points=[];fontSize=14;" parent="moevYXYjzL2wdo6MrvVT-8" vertex="1" connectable="0">
                    <mxGeometry x="-0.287" y="-1" relative="1" as="geometry">
                        <mxPoint x="51" y="18" as="offset"/>
                    </mxGeometry>
                </mxCell>
                <mxCell id="9EUJFgsQS7i97Vk9fihg-1" value="&lt;font style=&quot;font-size: 14px;&quot;&gt;ANTLR4&lt;br&gt;генерация кода&lt;br&gt;&lt;/font&gt;" style="rounded=0;whiteSpace=wrap;html=1;" parent="1" vertex="1">
                    <mxGeometry x="120" y="80" width="280" height="160" as="geometry"/>
                </mxCell>
                <mxCell id="9EUJFgsQS7i97Vk9fihg-2" value="&lt;font style=&quot;font-size: 14px;&quot;&gt;A1&lt;/font&gt;" style="rounded=0;whiteSpace=wrap;html=1;" parent="1" vertex="1">
                    <mxGeometry x="360" y="200" width="40" height="40" as="geometry"/>
                </mxCell>
                <mxCell id="3_sfm2uRKEZ2_lZH5iUf-11" style="edgeStyle=orthogonalEdgeStyle;rounded=0;html=1;exitX=1;exitY=0.5;exitDx=0;exitDy=0;fontSize=14;startArrow=none;startFill=0;endArrow=classic;endFill=1;" parent="1" source="moevYXYjzL2wdo6MrvVT-1" edge="1">
                    <mxGeometry relative="1" as="geometry">
                        <mxPoint x="1000" y="320" as="targetPoint"/>
                        <Array as="points">
                            <mxPoint x="980" y="320"/>
                        </Array>
                    </mxGeometry>
                </mxCell>
                <mxCell id="3_sfm2uRKEZ2_lZH5iUf-12" value="Выходной код LLVM(IR)" style="edgeLabel;html=1;align=center;verticalAlign=middle;resizable=0;points=[];fontSize=14;" parent="3_sfm2uRKEZ2_lZH5iUf-11" vertex="1" connectable="0">
                    <mxGeometry x="-0.1933" y="-2" relative="1" as="geometry">
                        <mxPoint x="14" y="-32" as="offset"/>
                    </mxGeometry>
                </mxCell>
                <mxCell id="moevYXYjzL2wdo6MrvVT-1" value="&lt;font style=&quot;font-size: 14px;&quot;&gt;Компилятор&lt;/font&gt;" style="rounded=0;whiteSpace=wrap;html=1;" parent="1" vertex="1">
                    <mxGeometry x="480" y="240" width="280" height="160" as="geometry"/>
                </mxCell>
                <mxCell id="moevYXYjzL2wdo6MrvVT-2" value="&lt;font style=&quot;font-size: 14px;&quot;&gt;A2&lt;/font&gt;" style="rounded=0;whiteSpace=wrap;html=1;" parent="1" vertex="1">
                    <mxGeometry x="720" y="360" width="40" height="40" as="geometry"/>
                </mxCell>
                <mxCell id="PzxlP7XhQFu-x5lRBQ20-1" value="" style="endArrow=classic;html=1;fontSize=14;entryX=0.289;entryY=-0.016;entryDx=0;entryDy=0;entryPerimeter=0;" parent="1" edge="1">
                    <mxGeometry width="50" height="50" relative="1" as="geometry">
                        <mxPoint x="259.5" y="-77.44000000000005" as="sourcePoint"/>
                        <mxPoint x="260.4200000000001" y="80" as="targetPoint"/>
                    </mxGeometry>
                </mxCell>
                <mxCell id="PzxlP7XhQFu-x5lRBQ20-2" value="Грамматика&lt;br&gt;Pascal" style="edgeLabel;html=1;align=center;verticalAlign=middle;resizable=0;points=[];fontSize=14;" parent="PzxlP7XhQFu-x5lRBQ20-1" vertex="1" connectable="0">
                    <mxGeometry x="0.1494" y="-4" relative="1" as="geometry">
                        <mxPoint x="-57" y="-20" as="offset"/>
                    </mxGeometry>
                </mxCell>
                <mxCell id="3_sfm2uRKEZ2_lZH5iUf-5" value="" style="endArrow=classic;html=1;fontSize=14;" parent="1" edge="1">
                    <mxGeometry width="50" height="50" relative="1" as="geometry">
                        <mxPoint x="620" y="520" as="sourcePoint"/>
                        <mxPoint x="619.5" y="400" as="targetPoint"/>
                    </mxGeometry>
                </mxCell>
                <mxCell id="3_sfm2uRKEZ2_lZH5iUf-6" value="LLVM" style="edgeLabel;html=1;align=center;verticalAlign=middle;resizable=0;points=[];fontSize=14;" parent="3_sfm2uRKEZ2_lZH5iUf-5" vertex="1" connectable="0">
                    <mxGeometry x="0.1938" y="-1" relative="1" as="geometry">
                        <mxPoint x="-41" y="6" as="offset"/>
                    </mxGeometry>
                </mxCell>
            </root>
        </mxGraphModel>
    </diagram>
    <diagram id="t9X15T-bAVmE6qH7Ks0-" name="Page-1">
        <mxGraphModel dx="770" dy="736" grid="1" gridSize="10" guides="1" tooltips="1" connect="1" arrows="1" fold="1" page="1" pageScale="1" pageWidth="827" pageHeight="1169" math="0" shadow="0">
            <root>
                <mxCell id="0"/>
                <mxCell id="1" parent="0"/>
                <mxCell id="2" value="&lt;span style=&quot;font-size: 14px;&quot;&gt;Компилятор языка&lt;br&gt;программирования&lt;/span&gt;" style="rounded=0;whiteSpace=wrap;html=1;" parent="1" vertex="1">
                    <mxGeometry x="280" y="240" width="280" height="160" as="geometry"/>
                </mxCell>
                <mxCell id="3" value="&lt;font style=&quot;font-size: 14px;&quot;&gt;A0&lt;/font&gt;" style="rounded=0;whiteSpace=wrap;html=1;" parent="1" vertex="1">
                    <mxGeometry x="520" y="360" width="40" height="40" as="geometry"/>
                </mxCell>
                <mxCell id="8" value="" style="endArrow=classic;html=1;fontSize=14;entryX=-0.004;entryY=0.122;entryDx=0;entryDy=0;entryPerimeter=0;" parent="1" edge="1">
                    <mxGeometry width="50" height="50" relative="1" as="geometry">
                        <mxPoint x="21.12" y="319.5" as="sourcePoint"/>
                        <mxPoint x="280.0000000000001" y="319.5" as="targetPoint"/>
                    </mxGeometry>
                </mxCell>
                <mxCell id="9" value="Исходный код программы" style="edgeLabel;html=1;align=center;verticalAlign=middle;resizable=0;points=[];fontSize=14;" parent="8" vertex="1" connectable="0">
                    <mxGeometry x="-0.4671" y="-3" relative="1" as="geometry">
                        <mxPoint x="80" y="-23" as="offset"/>
                    </mxGeometry>
                </mxCell>
                <mxCell id="16" value="" style="endArrow=classic;html=1;fontSize=14;entryX=0.289;entryY=-0.016;entryDx=0;entryDy=0;entryPerimeter=0;" parent="1" edge="1">
                    <mxGeometry width="50" height="50" relative="1" as="geometry">
                        <mxPoint x="419.5" y="82.56" as="sourcePoint"/>
                        <mxPoint x="420.4200000000001" y="240.00000000000006" as="targetPoint"/>
                    </mxGeometry>
                </mxCell>
                <mxCell id="17" value="Грамматика&lt;br&gt;Pascal" style="edgeLabel;html=1;align=center;verticalAlign=middle;resizable=0;points=[];fontSize=14;" parent="16" vertex="1" connectable="0">
                    <mxGeometry x="0.1494" y="-4" relative="1" as="geometry">
                        <mxPoint x="-57" y="-20" as="offset"/>
                    </mxGeometry>
                </mxCell>
                <mxCell id="23" value="" style="endArrow=classic;html=1;fontSize=14;" parent="1" edge="1">
                    <mxGeometry width="50" height="50" relative="1" as="geometry">
                        <mxPoint x="350" y="560" as="sourcePoint"/>
                        <mxPoint x="350" y="400" as="targetPoint"/>
                    </mxGeometry>
                </mxCell>
                <mxCell id="24" value="ANTLR4" style="edgeLabel;html=1;align=center;verticalAlign=middle;resizable=0;points=[];fontSize=14;" parent="23" vertex="1" connectable="0">
                    <mxGeometry x="0.1938" y="-1" relative="1" as="geometry">
                        <mxPoint x="-51" y="6" as="offset"/>
                    </mxGeometry>
                </mxCell>
                <mxCell id="29" value="" style="endArrow=classic;html=1;fontSize=14;" parent="1" edge="1">
                    <mxGeometry width="50" height="50" relative="1" as="geometry">
                        <mxPoint x="510" y="560" as="sourcePoint"/>
                        <mxPoint x="510" y="400" as="targetPoint"/>
                    </mxGeometry>
                </mxCell>
                <mxCell id="30" value="LLVM" style="edgeLabel;html=1;align=center;verticalAlign=middle;resizable=0;points=[];fontSize=14;" parent="29" vertex="1" connectable="0">
                    <mxGeometry x="0.1938" y="-1" relative="1" as="geometry">
                        <mxPoint x="-41" y="6" as="offset"/>
                    </mxGeometry>
                </mxCell>
                <mxCell id="3SwQRDL6SNz5n02wWCx--30" style="edgeStyle=orthogonalEdgeStyle;rounded=0;html=1;exitX=1;exitY=0.5;exitDx=0;exitDy=0;fontSize=14;startArrow=none;startFill=0;endArrow=classic;endFill=1;" parent="1" edge="1">
                    <mxGeometry relative="1" as="geometry">
                        <mxPoint x="800" y="320" as="targetPoint"/>
                        <mxPoint x="560" y="319.5" as="sourcePoint"/>
                        <Array as="points">
                            <mxPoint x="740" y="320"/>
                            <mxPoint x="740" y="320"/>
                        </Array>
                    </mxGeometry>
                </mxCell>
                <mxCell id="3SwQRDL6SNz5n02wWCx--31" value="Выходной код LLVM(IR)" style="edgeLabel;html=1;align=center;verticalAlign=middle;resizable=0;points=[];fontSize=14;" parent="3SwQRDL6SNz5n02wWCx--30" vertex="1" connectable="0">
                    <mxGeometry x="0.0833" y="4" relative="1" as="geometry">
                        <mxPoint x="-10" y="-25" as="offset"/>
                    </mxGeometry>
                </mxCell>
            </root>
        </mxGraphModel>
    </diagram>
</mxfile>